<svg aria-hidden="true" style="position: absolute; width: 0; height: 0; overflow: hidden;" version="1.1" xmlns="http://www.w3.org/2000/svg" xmlns:xlink="http://www.w3.org/1999/xlink">
<defs>
<symbol id="icon-Celsius" viewBox="0 0 32 32">
<path d="M13.073 11.023c-0.225-0.212-0.487-0.38-0.784-0.504-0.301-0.121-0.621-0.184-0.961-0.184-0.341 0-0.662 0.063-0.961 0.184-0.297 0.124-0.559 0.292-0.784 0.504-0.224 0.214-0.4 0.464-0.529 0.753-0.128 0.288-0.191 0.592-0.191 0.911 0 0.32 0.064 0.625 0.191 0.913 0.129 0.288 0.305 0.539 0.529 0.751 0.225 0.214 0.487 0.383 0.784 0.504 0.299 0.124 0.62 0.185 0.961 0.185 0.34 0 0.66-0.061 0.961-0.185 0.297-0.121 0.559-0.29 0.784-0.504 0.224-0.212 0.4-0.464 0.526-0.751 0.128-0.288 0.194-0.592 0.194-0.913 0-0.319-0.066-0.624-0.194-0.911-0.126-0.289-0.302-0.539-0.526-0.753zM12.113 13.44c-0.215 0.214-0.477 0.32-0.785 0.32s-0.57-0.107-0.785-0.32c-0.212-0.214-0.32-0.464-0.32-0.753 0-0.297 0.108-0.552 0.32-0.759 0.215-0.208 0.477-0.311 0.785-0.311s0.57 0.103 0.785 0.311c0.211 0.207 0.319 0.462 0.319 0.759 0 0.289-0.108 0.539-0.319 0.753zM20.953 19.487c-0.379 0.108-0.755 0.161-1.129 0.161-0.246 0-0.488-0.038-0.728-0.112-0.241-0.076-0.46-0.193-0.656-0.353-0.198-0.16-0.358-0.365-0.479-0.616-0.122-0.25-0.185-0.557-0.185-0.919v-3.216c0-0.362 0.062-0.672 0.185-0.928 0.121-0.255 0.279-0.464 0.471-0.624s0.409-0.275 0.656-0.344c0.245-0.069 0.49-0.104 0.736-0.104 0.374 0 0.758 0.055 1.152 0.168 0.395 0.112 0.762 0.312 1.104 0.6l1.056-1.697c-0.428-0.372-0.936-0.645-1.53-0.816-0.591-0.169-1.206-0.255-1.846-0.255-0.522 0-1.036 0.075-1.536 0.224-0.501 0.15-0.947 0.374-1.336 0.672-0.388 0.3-0.704 0.669-0.943 1.112-0.242 0.443-0.362 0.958-0.362 1.544v4.128c0 0.598 0.124 1.117 0.37 1.56 0.245 0.443 0.565 0.811 0.958 1.104 0.396 0.294 0.842 0.514 1.344 0.664 0.503 0.148 1.014 0.224 1.538 0.224 0.65 0 1.267-0.096 1.855-0.288 0.586-0.193 1.082-0.46 1.488-0.799l-1.040-1.697c-0.383 0.299-0.766 0.501-1.143 0.607z"></path>
</symbol>
<symbol id="icon-Fahrenheit" viewBox="0 0 32 32">
<path d="M13.033 11.079c-0.225-0.212-0.487-0.38-0.784-0.504-0.301-0.121-0.621-0.184-0.961-0.184-0.341 0-0.662 0.063-0.961 0.184-0.297 0.124-0.559 0.292-0.784 0.504-0.224 0.213-0.4 0.463-0.529 0.753-0.128 0.288-0.191 0.592-0.191 0.912 0 0.32 0.064 0.625 0.191 0.913 0.129 0.288 0.305 0.539 0.529 0.751 0.225 0.213 0.487 0.383 0.784 0.504 0.299 0.124 0.62 0.185 0.961 0.185 0.34 0 0.66-0.061 0.961-0.185 0.297-0.121 0.559-0.29 0.784-0.504 0.224-0.212 0.4-0.464 0.526-0.751 0.128-0.288 0.194-0.592 0.194-0.913 0-0.319-0.066-0.624-0.194-0.912-0.126-0.289-0.302-0.539-0.526-0.753zM12.074 13.496c-0.215 0.214-0.477 0.32-0.785 0.32s-0.57-0.107-0.785-0.32c-0.212-0.213-0.32-0.463-0.32-0.753 0-0.297 0.108-0.552 0.32-0.759 0.215-0.208 0.477-0.311 0.785-0.311s0.57 0.103 0.785 0.311c0.211 0.207 0.319 0.462 0.319 0.759 0 0.289-0.108 0.539-0.319 0.753zM23.176 12.552v-1.969h-7.599v11.025h2.191v-4.496h4.624v-1.967h-4.624v-2.592h5.407z"></path>
</symbol>
<symbol id="icon-spinner" viewBox="0 0 32 32">
<path d="M12 4c0-2.209 1.791-4 4-4s4 1.791 4 4c0 2.209-1.791 4-4 4s-4-1.791-4-4zM20.485 7.515c0-2.209 1.791-4 4-4s4 1.791 4 4c0 2.209-1.791 4-4 4s-4-1.791-4-4zM26 16c0-1.105 0.895-2 2-2s2 0.895 2 2c0 1.105-0.895 2-2 2s-2-0.895-2-2zM22.485 24.485c0-1.105 0.895-2 2-2s2 0.895 2 2c0 1.105-0.895 2-2 2s-2-0.895-2-2zM14 28c0 0 0 0 0 0 0-1.105 0.895-2 2-2s2 0.895 2 2c0 0 0 0 0 0 0 1.105-0.895 2-2 2s-2-0.895-2-2zM5.515 24.485c0 0 0 0 0 0 0-1.105 0.895-2 2-2s2 0.895 2 2c0 0 0 0 0 0 0 1.105-0.895 2-2 2s-2-0.895-2-2zM4.515 7.515c0 0 0 0 0 0 0-1.657 1.343-3 3-3s3 1.343 3 3c0 0 0 0 0 0 0 1.657-1.343 3-3 3s-3-1.343-3-3zM1.75 16c0-1.243 1.007-2.25 2.25-2.25s2.25 1.007 2.25 2.25c0 1.243-1.007 2.25-2.25 2.25s-2.25-1.007-2.25-2.25z"></path>
</symbol>
<symbol id="icon-location-pin" viewBox="0 0 20 20">
<path d="M10 2.009c-2.762 0-5 2.229-5 4.99 0 4.774 5 11 5 11s5-6.227 5-11c0-2.76-2.238-4.99-5-4.99zM10 9.76c-1.492 0-2.7-1.209-2.7-2.7s1.208-2.7 2.7-2.7c1.49 0 2.699 1.209 2.699 2.7s-1.209 2.7-2.699 2.7z"></path>
</symbol>
<symbol id="icon-magnifying-glass" viewBox="0 0 20 20">
<path d="M17.545 15.467l-3.779-3.779c0.57-0.935 0.898-2.035 0.898-3.21 0-3.417-2.961-6.377-6.378-6.377s-6.186 2.769-6.186 6.186c0 3.416 2.961 6.377 6.377 6.377 1.137 0 2.2-0.309 3.115-0.844l3.799 3.801c0.372 0.371 0.975 0.371 1.346 0l0.943-0.943c0.371-0.371 0.236-0.84-0.135-1.211zM4.004 8.287c0-2.366 1.917-4.283 4.282-4.283s4.474 2.107 4.474 4.474c0 2.365-1.918 4.283-4.283 4.283s-4.473-2.109-4.473-4.474z"></path>
</symbol>
<symbol id="icon-loader" viewBox="0 0 24 24">
<path d="M11 2v4c0 0.552 0.448 1 1 1s1-0.448 1-1v-4c0-0.552-0.448-1-1-1s-1 0.448-1 1zM11 18v4c0 0.552 0.448 1 1 1s1-0.448 1-1v-4c0-0.552-0.448-1-1-1s-1 0.448-1 1zM4.223 5.637l2.83 2.83c0.391 0.391 1.024 0.391 1.414 0s0.391-1.024 0-1.414l-2.83-2.83c-0.391-0.391-1.024-0.391-1.414 0s-0.391 1.024 0 1.414zM15.533 16.947l2.83 2.83c0.391 0.391 1.024 0.391 1.414 0s0.391-1.024 0-1.414l-2.83-2.83c-0.391-0.391-1.024-0.391-1.414 0s-0.391 1.024 0 1.414zM2 13h4c0.552 0 1-0.448 1-1s-0.448-1-1-1h-4c-0.552 0-1 0.448-1 1s0.448 1 1 1zM18 13h4c0.552 0 1-0.448 1-1s-0.448-1-1-1h-4c-0.552 0-1 0.448-1 1s0.448 1 1 1zM5.637 19.777l2.83-2.83c0.391-0.391 0.391-1.024 0-1.414s-1.024-0.391-1.414 0l-2.83 2.83c-0.391 0.391-0.391 1.024 0 1.414s1.024 0.391 1.414 0zM16.947 8.467l2.83-2.83c0.391-0.391 0.391-1.024 0-1.414s-1.024-0.391-1.414 0l-2.83 2.83c-0.391 0.391-0.391 1.024 0 1.414s1.024 0.391 1.414 0z"></path>
</symbol>
</defs>
</svg>
