<?xml version="1.0" standalone="no"?>
<!DOCTYPE svg PUBLIC "-//W3C//DTD SVG 20010904//EN"
 "http://www.w3.org/TR/2001/REC-SVG-20010904/DTD/svg10.dtd">
<svg version="1.0" xmlns="http://www.w3.org/2000/svg"
 width="200.000000pt" height="200.000000pt" viewBox="0 0 200.000000 200.000000"
 preserveAspectRatio="xMidYMid meet">
<metadata>
Created by potrace 1.11, written by Peter Selinger 2001-2013
</metadata>
<g transform="translate(0.000000,200.000000) scale(0.100000,-0.100000)"
fill="#000000" stroke="none">
<path d="M625 1885 c-388 -86 -584 -538 -378 -872 119 -192 283 -284 515 -288
60 -1 111 -4 114 -7 5 -5 -50 -130 -127 -292 l-18 -39 57 7 c31 4 81 9 110 13
l52 5 -50 -100 c-27 -55 -50 -112 -50 -127 0 -34 50 -85 84 -85 26 0 96 29 96
39 0 3 11 19 24 34 14 16 40 47 58 69 63 78 240 293 261 318 12 14 48 57 79
96 46 56 66 73 100 83 161 48 274 188 283 348 15 271 -224 469 -491 408 -29
-7 -31 -5 -52 45 -62 149 -196 272 -353 327 -89 30 -224 38 -314 18z"/>
</g>
</svg>
